# xmcd
#
# Track frame offsets:
#	150
#	20961
#	43714
#	64606
#	84732
#	106748
#
# Disc length: 1738 seconds
#
# Revision: 1
# Processed by: cddbd v1.4PL0 Copyright (c) Steve Scherf et al.
# Submitted via: audiograbber 1.80.04
#
DISCID=4906c806
DTITLE=Mae, Beulah - Vintage Blues
DYEAR=2001
DGENRE=Blues
TTITLE0=Lawdy Papa
TTITLE1=Blues Is a Man
TTITLE2=Close to You
TTITLE3=Farther Up the Road
TTITLE4=All Your Love
TTITLE5=Hate to See You Go
EXTD=
EXTT0=
EXTT1=
EXTT2=
EXTT3=
EXTT4=
EXTT5=
PLAYORDER=
